<?xml version="1.0" encoding="UTF-8" standalone="no"?>
<svg
   width="32.000004"
   height="32.000004"
   viewBox="0 0 8.4666665 8.4666665"
   id="svg6890"
   inkscape:version="1.2.2 (732a01da63, 2022-12-09)"
   sodipodi:docname="favicon.svg"
   inkscape:export-filename="..\..\..\..\OneDrive - UNSW\Desktop\logo.png"
   inkscape:export-xdpi="96"
   inkscape:export-ydpi="96"
   version="1.1"
   xmlns:inkscape="http://www.inkscape.org/namespaces/inkscape"
   xmlns:sodipodi="http://sodipodi.sourceforge.net/DTD/sodipodi-0.dtd"
   xmlns="http://www.w3.org/2000/svg"
   xmlns:svg="http://www.w3.org/2000/svg">
  <sodipodi:namedview
     id="namedview8"
     pagecolor="#ffffff"
     bordercolor="#000000"
     borderopacity="0.25"
     inkscape:showpageshadow="2"
     inkscape:pageopacity="0.0"
     inkscape:pagecheckerboard="0"
     inkscape:deskcolor="#d1d1d1"
     showgrid="false"
     inkscape:zoom="9.3790632"
     inkscape:cx="-3.5184751"
     inkscape:cy="24.842566"
     inkscape:window-width="1920"
     inkscape:window-height="1009"
     inkscape:window-x="-8"
     inkscape:window-y="504"
     inkscape:window-maximized="1"
     inkscape:current-layer="layer1" />
  <defs
     id="defs6887" />
  <g
     inkscape:label="Layer 1"
     inkscape:groupmode="layer"
     id="layer1"
     transform="translate(69.263221,-6.0692814)"
     style="display:inline">
    <rect
       style="display:none;fill:none;fill-opacity:1;stroke:#132a13;stroke-width:20;stroke-linecap:round;stroke-linejoin:round;stroke-dasharray:none;stroke-opacity:1"
       id="rect6675-2-8"
       width="264.58334"
       height="264.58334"
       x="-69.263229"
       y="6.0692763" />
    <g
       id="g239"
       transform="matrix(0.032,0,0,0.032,-67.046798,5.8750644)"
       style="stroke-width:31.25">
      <path
         id="rect6675-2"
         style="display:inline;fill:#132a13;fill-opacity:1;stroke:none;stroke-width:63.7676;stroke-dasharray:none;stroke-opacity:1"
         d="m 195.32011,160.76992 -12.81472,30.58831 c -0.75599,1.78442 -1.48161,3.45067 -2.17713,4.99866 -0.69551,1.54799 -1.36071,2.97759 -1.99574,4.28915 -0.63503,1.31155 -1.23981,2.50502 -1.81436,3.58014 -0.57456,1.07511 -1.1189,2.03194 -1.63298,2.87062 -0.24191,0.41042 -0.50647,0.8147 -0.79375,1.21285 -0.28727,0.39815 -0.59754,0.79027 -0.93017,1.17616 -0.33264,0.38588 -0.68757,0.76585 -1.06557,1.13946 -0.378,0.37361 -0.77864,0.74091 -1.20199,1.10226 -0.42336,0.36135 -0.86971,0.71649 -1.33842,1.06557 -0.46872,0.34908 -0.95974,0.69207 -1.47382,1.02888 -0.51407,0.33681 -1.0508,0.66764 -1.61023,0.99218 -0.55944,0.32454 -1.14187,0.64271 -1.74667,0.95498 -0.58967,0.31228 -1.21037,0.60526 -1.86241,0.8785 -0.65205,0.27324 -1.3356,0.52699 -2.05001,0.7612 -0.71441,0.2342 -1.45977,0.44871 -2.23655,0.64388 -0.77679,0.19518 -1.58499,0.37097 -2.42415,0.5271 -0.83915,0.15614 -1.70917,0.2927 -2.61069,0.4098 -0.90152,0.1171 -1.83439,0.21494 -2.79828,0.293 -0.96389,0.0781 -1.95909,0.13615 -2.98535,0.17519 -1.02626,0.039 -2.08327,0.0589 -3.1719,0.0589 -1.02815,0 -2.03096,-0.0189 -3.00808,-0.0568 -0.97712,-0.0379 -1.92903,-0.0952 -2.85512,-0.17105 -0.92609,-0.0758 -1.82659,-0.17046 -2.70165,-0.28422 -0.87506,-0.11375 -1.72465,-0.24623 -2.54868,-0.3979 -0.82403,-0.15168 -1.6222,-0.32252 -2.3952,-0.51212 -0.773,-0.18959 -1.52079,-0.39829 -2.24276,-0.6258 -0.72197,-0.22751 -1.41833,-0.47406 -2.08928,-0.73949 -0.67094,-0.26543 -1.3164,-0.54982 -1.93631,-0.85318 -0.61992,-0.30335 -1.21638,-0.61066 -1.78904,-0.92294 -0.57267,-0.31227 -1.12151,-0.62913 -1.64693,-0.95033 -0.52541,-0.32119 -1.02717,-0.64708 -1.50533,-0.9772 -0.47817,-0.33012 -0.93283,-0.66451 -1.36374,-1.00356 -0.43092,-0.33904 -0.83797,-0.68246 -1.22164,-1.03042 -0.38366,-0.34797 -0.74362,-0.70042 -1.08003,-1.0573 -0.33642,-0.35689 -0.64928,-0.71837 -0.93845,-1.08417 -0.28916,-0.36581 -0.55493,-0.73632 -0.79685,-1.11105 -0.48383,-0.7673 -1.01675,-1.66823 -1.59887,-2.70319 -0.58211,-1.03497 -1.21354,-2.20362 -1.89394,-3.50625 -0.68039,-1.30263 -1.40982,-2.739 -2.18849,-4.3093 -0.77868,-1.57029 -1.60662,-3.27439 -2.48357,-5.11234 L 63.30078,97.997004 19.755635,192.10806 c -0.846712,1.78442 -1.652321,3.4439 -2.415873,4.9785 -0.763553,1.53461 -1.485367,2.9439 -2.16576,4.22868 -0.680393,1.28479 -1.318928,2.44493 -1.916162,3.4799 -0.597234,1.03496 -1.153007,1.94492 -1.667082,2.73006 -0.241917,0.38365 -0.507683,0.76267 -0.79685,1.1374 -0.289167,0.37473 -0.602027,0.74524 -0.9384441,1.11104 -0.3364166,0.36581 -0.6963713,0.72729 -1.0800374,1.08417 -0.3836662,0.35689 -0.7907152,0.70934 -1.2216309,1.0573 -0.4309157,0.34797 -0.8855759,0.69139 -1.363741,1.03043 -0.4781652,0.33904 -0.9799198,0.67344 -1.5053345,1.00356 -0.5254147,0.33012 -1.0742637,0.656 -1.6469279,0.9772 -0.5726642,0.3212 -1.1691243,0.63754 -1.7890381,0.94981 -0.61991376,0.30336 -1.26537268,0.58775 -1.93631592,0.85318 -0.67094328,0.26543 -1.36730538,0.51198 -2.08927818,0.73949 -0.7219727,0.22751 -1.4697549,0.43621 -2.2427571,0.6258 -0.7730023,0.1896 -1.571171,0.36044 -2.3952027,0.51212 -0.8240317,0.15167 -1.6736204,0.28415 -2.5486816,0.3979 -0.8750616,0.11376 -1.7755536,0.20839 -2.7016436,0.28422 -0.926091,0.0758 -1.878003,0.13313 -2.855123,0.17105 -0.97712,0.0379 -1.979936,0.0568 -3.008085,0.0568 -0.831592,0 -1.644996,-0.0117 -2.440678,-0.0351 -0.795682,-0.0234 -1.573419,-0.0586 -2.333191,-0.10542 -0.759772,-0.0468 -1.501841,-0.10544 -2.225704,-0.1757 -0.723863,-0.0703 -1.429747,-0.1523 -2.1177,-0.24598 -0.687953,-0.0937 -1.357653,-0.19916 -2.009697,-0.31626 -0.652043,-0.1171 -1.286075,-0.24602 -1.902209,-0.38654 -0.616134,-0.14052 -1.214499,-0.29236 -1.794723,-0.4563 -0.580224,-0.16395 -1.142404,-0.33974 -1.686718,-0.5271 -0.529195,-0.17845 -1.046185,-0.36639 -1.55081,-0.56379 -0.504625,-0.19741 -0.996857,-0.40428 -1.476913,-0.62064 -0.480055,-0.21636 -0.948046,-0.44215 -1.403531,-0.67748 -0.455486,-0.23532 -0.898719,-0.48004 -1.329635,-0.73432 -0.430916,-0.25428 -0.849391,-0.51844 -1.255737,-0.79168 -0.406346,-0.27324 -0.800581,-0.55581 -1.182357,-0.84801 -0.381776,-0.2922 -0.751253,-0.5937 -1.10846,-0.90486 -0.357206,-0.31115 -0.701925,-0.63209 -1.034562,-0.96221 -0.332636,-0.33904 -0.657617,-0.68516 -0.975134,-1.0387 -0.317517,-0.35354 -0.627779,-0.71406 -0.930176,-1.0821 -0.302397,-0.36804 -0.596907,-0.74349 -0.884184,-1.12603 -0.287277,-0.38254 -0.567068,-0.7724 -0.839225,-1.16944 -0.272157,-0.39703 -0.536712,-0.80131 -0.79375,-1.21284 -0.257037,-0.41154 -0.506874,-0.83023 -0.748791,-1.25626 -0.241918,-0.42603 -0.476002,-0.85965 -0.7028,-1.30018 -0.226798,-0.44053 -0.446163,-0.88804 -0.657841,-1.34307 -0.846711,-1.8558 -1.647995,-3.64011 -2.403987,-5.35316 -0.755993,-1.71305 -1.46638,-3.35499 -2.131653,-4.92528 l -12.814722,-30.5883 V 270.65261 H 195.32011 Z" />
      <path
         id="path4100"
         style="display:inline;fill:#132a13;fill-opacity:1;stroke:none;stroke-width:63.7676;stroke-dasharray:none;stroke-opacity:1"
         d="M -69.263221,6.0692814 V 58.104865 c 0.264824,0.05451 0.534431,0.106385 0.790649,0.165881 0.437059,0.101489 0.861809,0.210091 1.273824,0.326079 0.412016,0.115987 0.811403,0.239517 1.198377,0.370003 0.386974,0.130486 0.761514,0.268427 1.123446,0.413411 0.361931,0.144985 0.711109,0.29682 1.047998,0.456303 0.336889,0.159483 0.66122,0.326247 0.973067,0.500228 0.311847,0.173981 0.611332,0.355156 0.898136,0.543636 0.286805,0.18848 0.560927,0.384583 0.822689,0.587561 0.261762,0.202978 0.511038,0.412976 0.747758,0.630453 0.23672,0.217476 0.461149,0.442402 0.672827,0.674377 0.423356,0.46395 0.839927,0.953827 1.250053,1.470195 0.410126,0.516367 0.813883,1.059022 1.210779,1.627807 0.396896,0.568785 0.786805,1.163701 1.170471,1.784904 0.383666,0.621203 0.760761,1.268897 1.131197,1.942517 0.370436,0.67362 0.7342,1.373059 1.091406,2.099097 0.357207,0.726037 0.708156,1.478255 1.052133,2.25671 0.343976,0.778455 0.681077,1.58345 1.011824,2.414323 0.330747,0.830872 0.655034,1.688129 0.972551,2.571419 L -15.98792,170.5874 23.021069,84.828298 c 0.725752,-1.64167 1.432847,-3.185341 2.1208,-4.630725 0.687953,-1.445383 1.35696,-2.792517 2.007113,-4.041614 0.650153,-1.249096 1.281587,-2.400209 1.893941,-3.453019 0.306177,-0.526405 0.607611,-1.028518 0.904338,-1.505851 0.296727,-0.477333 0.588638,-0.929795 0.875915,-1.358057 0.287277,-0.428261 0.597023,-0.849208 0.929659,-1.262972 0.332637,-0.413763 0.688089,-0.820299 1.066085,-1.219563 0.377996,-0.399265 0.778638,-0.79139 1.201994,-1.176156 0.423356,-0.384766 0.869704,-0.762479 1.33842,-1.132747 0.468715,-0.370268 0.959737,-0.733053 1.473811,-1.088823 0.514075,-0.355769 1.050804,-0.704143 1.610238,-1.045414 0.559434,-0.341271 1.14187,-0.67575 1.746663,-1.002523 0.604794,-0.326773 1.231903,-0.645807 1.882056,-0.958081 0.650154,-0.312274 1.329892,-0.605259 2.038635,-0.878499 0.708743,-0.27324 1.446486,-0.526988 2.213819,-0.761194 0.767332,-0.234206 1.564113,-0.448717 2.390035,-0.643888 0.825921,-0.195172 1.681223,-0.370963 2.565735,-0.5271 0.884511,-0.156137 1.798334,-0.292691 2.741434,-0.409794 0.943101,-0.117103 1.915445,-0.214937 2.917135,-0.293006 1.00169,-0.07807 2.032555,-0.136665 3.092834,-0.175699 1.06028,-0.03903 2.150183,-0.0584 3.269051,-0.0584 1.133989,0 2.235496,0.02075 3.305225,0.06201 1.069729,0.04127 2.107518,0.102989 3.112988,0.185518 1.00547,0.08253 1.979025,0.185748 2.920236,0.309542 0.94121,0.123795 1.850014,0.268506 2.726965,0.433565 0.876951,0.16506 1.722037,0.350748 2.534729,0.557072 0.812692,0.206324 1.593027,0.43299 2.341459,0.680579 0.748432,0.247589 1.464533,0.515748 2.148706,0.804602 0.684173,0.288854 1.336556,0.598507 1.95647,0.928626 0.635033,0.321196 1.245518,0.646131 1.831413,0.975134 0.585894,0.329003 1.146863,0.662095 1.683618,0.998905 0.536754,0.33681 1.049242,0.677543 1.536857,1.02216 0.487615,0.344617 0.950587,0.692991 1.389062,1.045414 0.438476,0.352424 0.852449,0.708955 1.241785,1.069186 0.389336,0.36023 0.753793,0.724402 1.09399,1.092439 0.340197,0.368038 0.656172,0.73985 0.947229,1.115695 0.291057,0.375844 0.557517,0.755297 0.799434,1.138948 0.483836,0.767303 1.009137,1.659718 1.576132,2.676839 0.566994,1.017122 1.175575,2.159207 1.825728,3.426148 0.650153,1.266941 1.342013,2.658695 2.075324,4.175456 0.73331,1.51676 1.50794,3.1587 2.32441,4.92528 l 39.37227,85.759099 34.83612,-91.647628 c 0.42335,-1.195564 0.83923,-2.326881 1.24747,-3.393075 0.40823,-1.066193 0.80887,-2.067645 1.20199,-3.004467 0.39312,-0.936823 0.77852,-1.808926 1.15652,-2.616378 0.378,-0.807452 0.74868,-1.550207 1.11156,-2.228288 0.19656,-0.339041 0.409,-0.673438 0.63769,-1.003556 0.22868,-0.330119 0.4735,-0.656005 0.73432,-0.977202 0.26082,-0.321196 0.53749,-0.638055 0.83044,-0.950329 0.29295,-0.312274 0.602,-0.619589 0.92707,-0.922941 0.32508,-0.303352 0.66651,-0.602673 1.02371,-0.897103 0.35721,-0.29443 0.7305,-0.584207 1.11983,-0.869715 0.38934,-0.285507 0.79448,-0.566773 1.21595,-0.843359 0.42146,-0.276586 0.85898,-0.548307 1.31258,-0.815971 0.46872,-0.267663 0.96337,-0.51872 1.48311,-0.752925 0.51975,-0.234206 1.06479,-0.451926 1.63556,-0.652674 0.57078,-0.200747 1.16724,-0.384614 1.78904,-0.551904 0.32415,-0.08721 0.67432,-0.157527 1.01234,-0.235645 V 6.0692814 Z" />
    </g>
  </g>
</svg>
